<svg xmlns="http://www.w3.org/2000/svg" viewBox="0 0 512 512"><path d="M394.685 484.734c-.361-1.811-22.352-112.29-22.594-113.425-2.641-12.788-9.797-22.584-20.3-28.895-6.296-3.798-9.871-4.403-13.954-5.658l-74.99-26.209a10.952 10.952 0 01-7.399-10.359v-22.963c-28.723 14.362-58.843 13.455-85.578.408v22.555a10.95 10.95 0 01-7.399 10.359l-30.827 10.57h-.029l.003.006-.003.005-44.103 15.628-5.802 1.712c-10.492 3.913-19.59 11.344-24.688 21.735-3.529 7.158-2.482 4.644-19.607 90.609-6.341 32.836-7.741 35.228-6.948 42.564 2.207 20.506 23.299 18.366 23.87 18.615h316.67c.226-.076 27.815 2.024 23.678-27.257z" fill="#6c7d87"/><path d="M56.42 484.734l22.593-123.729c-.313 1.503 1.677-16.55 18.661-27.851-18.968 6.721-13.089 4.032-18.92 6.531-11.007 4.971-19.543 13.417-23.752 25.319-1.684 4.78-.592.578-17.586 85.807-6.341 32.836-7.74 35.231-6.948 42.564 2.207 20.506 23.299 18.366 23.87 18.615h25.758c-18.174.001-26.027-10.627-23.676-27.256z" fill="#566a75"/><path d="M100.955 511.991H54.337c-.597-.261-24.638 2.154-24.037-22.908.131-5.344.8-5.569 7.115-38.272l.365-1.833h63.175v63.013z" fill="#dd9a5e"/><path d="M62.949 448.979H37.781l-.365 1.832c-6.338 32.817-6.984 32.92-7.115 38.272-.599 24.979 23.563 22.701 24.037 22.908h25.758c-16.739 0-24.375-8.806-24.037-22.908.04-1.637.65-5.06 6.89-40.104z" fill="#d18c54"/><path d="M169.87 273.671c0 64.056 0-7.297.001 43.155h.027v1.542c0 10.249 6.546 19.359 16.264 22.613 15.596 5.222 35.62 5.817 52.993 0 9.719-3.254 16.264-12.363 16.264-22.613v-1.542h.027l.001-43.155c-27.725 14.783-58.988 14.178-85.577 0z" fill="#dd9a5e"/><path d="M195.662 325.39h-.033l-.002-39.505a93.878 93.878 0 01-25.758-9.214c0 64.056 0-10.297.001 40.155h.027v1.542c0 10.249 6.546 19.359 16.264 22.613a79.349 79.349 0 0015.15 3.444c-6.55-8.894-5.549-18.354-5.649-19.035z" fill="#d18c54"/><path d="M100.955 423.702a7.727 7.727 0 00-7.728 7.728v80.561h15.455V431.43a7.726 7.726 0 00-7.727-7.728z" fill="#566a75"/><path d="M462.833 511.991H212.658c-10.438 0-18.9-8.462-18.9-18.9 0-5.982 4.85-10.832 10.832-10.832h266.311c5.982 0 10.832 4.85 10.832 10.832 0 10.438-8.462 18.9-18.9 18.9z" fill="#c6c6c6"/><path d="M242.44 493.091c0-5.982 4.85-10.832 10.832-10.832H204.59c-5.982 0-10.832 4.85-10.832 10.832v.001c0 10.438 8.462 18.9 18.9 18.9h48.681c-10.438-.001-18.899-8.463-18.899-18.901z" fill="#b7b7b7"/><path d="M446.446 316.826H229.045c-6.8 0-12.364 5.564-12.364 12.364v140.705c0 6.8 5.564 12.364 12.364 12.364h217.401c6.8 0 12.364-5.564 12.364-12.364V329.19c0-6.8-5.564-12.364-12.364-12.364z" fill="#ededed"/><g fill="#dadada"><path d="M242.44 469.895V329.19c0-6.8 5.564-12.364 12.364-12.364h-25.758c-6.8 0-12.364 5.564-12.364 12.364v140.705c0 6.8 5.564 12.364 12.364 12.364h25.758c-6.8 0-12.364-5.564-12.364-12.364z"/><circle cx="337.75" cy="399.54" r="17.859"/></g><path d="M337.754 381.698c-13.617-.022-22.389 14.799-15.475 26.774 6.917 11.98 24.136 11.784 30.925-.014-13.737-.019-22.314-14.833-15.45-26.76z" fill="#c6c6c6"/><path d="M210.329.122C143.77.376 87.577 54.712 87.577 123.744v46.85h247.279v-70.089c0-47.873-29.453-58.901-29.453-58.901C268.775-3.559 210.378.121 210.378.121" fill="#4c4846"/><path d="M227.032.86c-75.434-8.587-136.82 48.348-139.35 118.012-.195 5.009-.064 3.135-.105 51.722h29.453v-46.85C117.03 59.792 165.44 7.62 227.032.86z" fill="#3d3938"/><path d="M118.03 155.882c-15.508-5.526-32.343 4.751-32.343 19.745 0 14.99 16.833 25.272 32.343 19.745v-39.49zm186.373 0c15.508-5.526 32.343 4.751 32.343 19.745 0 14.99-16.833 25.272-32.343 19.745v-39.49z" fill="#dd9a5e"/><path d="M87.952 166.548c-9.059 17.197 10.014 35.974 30.078 28.825v-18.159c-11.701 4.168-24.784-.614-30.078-10.666zm216.451 10.666v18.159c20.063 7.149 39.136-11.627 30.078-28.825-3.788 7.194-18.373 14.836-30.078 10.666z" fill="#d18c54"/><path d="M301.153 116.757c2.402.232 4.25 2.225 4.25 4.638 0 79.299.052 73.312-.133 76.999-1.222 24.119-11.537 46.265-28.314 62.634-58.791 57.322-156.895 16.67-159.846-63.736-.138-3.545-.08-44.617-.08-44.501 0-18.467 16.389-32.557 34.667-29.918 28.787 4.155 70.806 2.541 107.47-28.799 3.767-3.22 9.485-2.18 11.891 2.153 4.543 8.181 13.576 18.936 30.095 20.53z" fill="#edae6b"/><path d="M142.881 197.292c-.118-3.04-.093-58.677-.083-74.394-14.377 2.157-25.767 14.5-25.767 29.893 0-.116-.058 40.956.08 44.501 2.175 59.284 56.078 96.947 107.812 89.673-42.478-5.873-80.229-40.261-82.042-89.673z" fill="#dd9a5e"/></svg>